<?xml version="1.0" encoding="UTF-8" ?>
<svg version="1.1" width="256" height="256" xmlns="http://www.w3.org/2000/svg" shape-rendering="crispEdges">
<rect x="154" y="150" width="2" height="2" fill="#000000" />
<rect x="152" y="152" width="2" height="2" fill="#000000" />
<rect x="154" y="152" width="2" height="2" fill="#000000" />
<rect x="156" y="152" width="2" height="2" fill="#000000" />
<rect x="158" y="152" width="2" height="2" fill="#000000" />
<rect x="160" y="152" width="2" height="2" fill="#000000" />
<rect x="162" y="152" width="2" height="2" fill="#000000" />
<rect x="164" y="152" width="2" height="2" fill="#000000" />
<rect x="166" y="152" width="2" height="2" fill="#000000" />
<rect x="168" y="152" width="2" height="2" fill="#000000" />
<rect x="170" y="152" width="2" height="2" fill="#000000" />
<rect x="172" y="152" width="2" height="2" fill="#000000" />
<rect x="174" y="152" width="2" height="2" fill="#000000" />
<rect x="176" y="152" width="2" height="2" fill="#000000" />
<rect x="148" y="154" width="2" height="2" fill="#000000" />
<rect x="150" y="154" width="2" height="2" fill="#000000" />
<rect x="152" y="154" width="2" height="2" fill="#000000" />
<rect x="154" y="154" width="2" height="2" fill="#D9A066" />
<rect x="156" y="154" width="2" height="2" fill="#D9A066" />
<rect x="158" y="154" width="2" height="2" fill="#D9A066" />
<rect x="160" y="154" width="2" height="2" fill="#D9A066" />
<rect x="162" y="154" width="2" height="2" fill="#D9A066" />
<rect x="164" y="154" width="2" height="2" fill="#D9A066" />
<rect x="166" y="154" width="2" height="2" fill="#D9A066" />
<rect x="168" y="154" width="2" height="2" fill="#D9A066" />
<rect x="170" y="154" width="2" height="2" fill="#D9A066" />
<rect x="172" y="154" width="2" height="2" fill="#D9A066" />
<rect x="174" y="154" width="2" height="2" fill="#000000" />
<rect x="142" y="156" width="2" height="2" fill="#000000" />
<rect x="144" y="156" width="2" height="2" fill="#000000" />
<rect x="146" y="156" width="2" height="2" fill="#000000" />
<rect x="148" y="156" width="2" height="2" fill="#000000" />
<rect x="150" y="156" width="2" height="2" fill="#D9A066" />
<rect x="152" y="156" width="2" height="2" fill="#D9A066" />
<rect x="154" y="156" width="2" height="2" fill="#D9A066" />
<rect x="156" y="156" width="2" height="2" fill="#D9A066" />
<rect x="158" y="156" width="2" height="2" fill="#D9A066" />
<rect x="160" y="156" width="2" height="2" fill="#D9A066" />
<rect x="162" y="156" width="2" height="2" fill="#D9A066" />
<rect x="164" y="156" width="2" height="2" fill="#D9A066" />
<rect x="166" y="156" width="2" height="2" fill="#D9A066" />
<rect x="168" y="156" width="2" height="2" fill="#D9A066" />
<rect x="170" y="156" width="2" height="2" fill="#D9A066" />
<rect x="172" y="156" width="2" height="2" fill="#000000" />
<rect x="136" y="158" width="2" height="2" fill="#000000" />
<rect x="138" y="158" width="2" height="2" fill="#000000" />
<rect x="140" y="158" width="2" height="2" fill="#000000" />
<rect x="142" y="158" width="2" height="2" fill="#000000" />
<rect x="144" y="158" width="2" height="2" fill="#3F3F74" />
<rect x="146" y="158" width="2" height="2" fill="#000000" />
<rect x="148" y="158" width="2" height="2" fill="#D9A066" />
<rect x="150" y="158" width="2" height="2" fill="#D9A066" />
<rect x="152" y="158" width="2" height="2" fill="#D9A066" />
<rect x="154" y="158" width="2" height="2" fill="#D9A066" />
<rect x="156" y="158" width="2" height="2" fill="#D9A066" />
<rect x="158" y="158" width="2" height="2" fill="#D9A066" />
<rect x="160" y="158" width="2" height="2" fill="#D9A066" />
<rect x="162" y="158" width="2" height="2" fill="#D9A066" />
<rect x="164" y="158" width="2" height="2" fill="#D9A066" />
<rect x="166" y="158" width="2" height="2" fill="#D9A066" />
<rect x="168" y="158" width="2" height="2" fill="#D9A066" />
<rect x="170" y="158" width="2" height="2" fill="#D9A066" />
<rect x="172" y="158" width="2" height="2" fill="#000000" />
<rect x="132" y="160" width="2" height="2" fill="#000000" />
<rect x="134" y="160" width="2" height="2" fill="#000000" />
<rect x="136" y="160" width="2" height="2" fill="#000000" />
<rect x="138" y="160" width="2" height="2" fill="#3F3F74" />
<rect x="140" y="160" width="2" height="2" fill="#3F3F74" />
<rect x="142" y="160" width="2" height="2" fill="#3F3F74" />
<rect x="144" y="160" width="2" height="2" fill="#3F3F74" />
<rect x="146" y="160" width="2" height="2" fill="#000000" />
<rect x="148" y="160" width="2" height="2" fill="#000000" />
<rect x="150" y="160" width="2" height="2" fill="#D9A066" />
<rect x="152" y="160" width="2" height="2" fill="#D9A066" />
<rect x="154" y="160" width="2" height="2" fill="#D9A066" />
<rect x="156" y="160" width="2" height="2" fill="#D9A066" />
<rect x="158" y="160" width="2" height="2" fill="#D9A066" />
<rect x="160" y="160" width="2" height="2" fill="#D9A066" />
<rect x="162" y="160" width="2" height="2" fill="#D9A066" />
<rect x="164" y="160" width="2" height="2" fill="#D9A066" />
<rect x="166" y="160" width="2" height="2" fill="#D9A066" />
<rect x="168" y="160" width="2" height="2" fill="#D9A066" />
<rect x="170" y="160" width="2" height="2" fill="#D9A066" />
<rect x="172" y="160" width="2" height="2" fill="#000000" />
<rect x="128" y="162" width="2" height="2" fill="#000000" />
<rect x="130" y="162" width="2" height="2" fill="#000000" />
<rect x="132" y="162" width="2" height="2" fill="#000000" />
<rect x="134" y="162" width="2" height="2" fill="#3F3F74" />
<rect x="136" y="162" width="2" height="2" fill="#3F3F74" />
<rect x="138" y="162" width="2" height="2" fill="#3F3F74" />
<rect x="140" y="162" width="2" height="2" fill="#3F3F74" />
<rect x="142" y="162" width="2" height="2" fill="#3F3F74" />
<rect x="144" y="162" width="2" height="2" fill="#3F3F74" />
<rect x="146" y="162" width="2" height="2" fill="#3F3F74" />
<rect x="148" y="162" width="2" height="2" fill="#000000" />
<rect x="150" y="162" width="2" height="2" fill="#D9A066" />
<rect x="152" y="162" width="2" height="2" fill="#D9A066" />
<rect x="154" y="162" width="2" height="2" fill="#D9A066" />
<rect x="156" y="162" width="2" height="2" fill="#D9A066" />
<rect x="158" y="162" width="2" height="2" fill="#D9A066" />
<rect x="160" y="162" width="2" height="2" fill="#D9A066" />
<rect x="162" y="162" width="2" height="2" fill="#D9A066" />
<rect x="164" y="162" width="2" height="2" fill="#D9A066" />
<rect x="166" y="162" width="2" height="2" fill="#D9A066" />
<rect x="168" y="162" width="2" height="2" fill="#D9A066" />
<rect x="170" y="162" width="2" height="2" fill="#000000" />
<rect x="110" y="164" width="2" height="2" fill="#000000" />
<rect x="112" y="164" width="2" height="2" fill="#000000" />
<rect x="114" y="164" width="2" height="2" fill="#000000" />
<rect x="116" y="164" width="2" height="2" fill="#000000" />
<rect x="118" y="164" width="2" height="2" fill="#000000" />
<rect x="120" y="164" width="2" height="2" fill="#000000" />
<rect x="122" y="164" width="2" height="2" fill="#000000" />
<rect x="124" y="164" width="2" height="2" fill="#000000" />
<rect x="126" y="164" width="2" height="2" fill="#000000" />
<rect x="128" y="164" width="2" height="2" fill="#000000" />
<rect x="130" y="164" width="2" height="2" fill="#3F3F74" />
<rect x="132" y="164" width="2" height="2" fill="#3F3F74" />
<rect x="134" y="164" width="2" height="2" fill="#3F3F74" />
<rect x="136" y="164" width="2" height="2" fill="#3F3F74" />
<rect x="138" y="164" width="2" height="2" fill="#3F3F74" />
<rect x="140" y="164" width="2" height="2" fill="#3F3F74" />
<rect x="142" y="164" width="2" height="2" fill="#3F3F74" />
<rect x="144" y="164" width="2" height="2" fill="#3F3F74" />
<rect x="146" y="164" width="2" height="2" fill="#3F3F74" />
<rect x="148" y="164" width="2" height="2" fill="#3F3F74" />
<rect x="150" y="164" width="2" height="2" fill="#000000" />
<rect x="152" y="164" width="2" height="2" fill="#D9A066" />
<rect x="154" y="164" width="2" height="2" fill="#D9A066" />
<rect x="156" y="164" width="2" height="2" fill="#D9A066" />
<rect x="158" y="164" width="2" height="2" fill="#D9A066" />
<rect x="160" y="164" width="2" height="2" fill="#D9A066" />
<rect x="162" y="164" width="2" height="2" fill="#D9A066" />
<rect x="164" y="164" width="2" height="2" fill="#D9A066" />
<rect x="166" y="164" width="2" height="2" fill="#D9A066" />
<rect x="168" y="164" width="2" height="2" fill="#000000" />
<rect x="170" y="164" width="2" height="2" fill="#000000" />
<rect x="108" y="166" width="2" height="2" fill="#000000" />
<rect x="110" y="166" width="2" height="2" fill="#000000" />
<rect x="112" y="166" width="2" height="2" fill="#3F3F74" />
<rect x="114" y="166" width="2" height="2" fill="#3F3F74" />
<rect x="116" y="166" width="2" height="2" fill="#3F3F74" />
<rect x="118" y="166" width="2" height="2" fill="#3F3F74" />
<rect x="120" y="166" width="2" height="2" fill="#3F3F74" />
<rect x="122" y="166" width="2" height="2" fill="#3F3F74" />
<rect x="124" y="166" width="2" height="2" fill="#3F3F74" />
<rect x="126" y="166" width="2" height="2" fill="#3F3F74" />
<rect x="128" y="166" width="2" height="2" fill="#3F3F74" />
<rect x="130" y="166" width="2" height="2" fill="#3F3F74" />
<rect x="132" y="166" width="2" height="2" fill="#3F3F74" />
<rect x="134" y="166" width="2" height="2" fill="#3F3F74" />
<rect x="136" y="166" width="2" height="2" fill="#3F3F74" />
<rect x="138" y="166" width="2" height="2" fill="#3F3F74" />
<rect x="140" y="166" width="2" height="2" fill="#3F3F74" />
<rect x="142" y="166" width="2" height="2" fill="#3F3F74" />
<rect x="144" y="166" width="2" height="2" fill="#3F3F74" />
<rect x="146" y="166" width="2" height="2" fill="#3F3F74" />
<rect x="148" y="166" width="2" height="2" fill="#3F3F74" />
<rect x="150" y="166" width="2" height="2" fill="#000000" />
<rect x="152" y="166" width="2" height="2" fill="#000000" />
<rect x="154" y="166" width="2" height="2" fill="#D9A066" />
<rect x="156" y="166" width="2" height="2" fill="#D9A066" />
<rect x="158" y="166" width="2" height="2" fill="#D9A066" />
<rect x="160" y="166" width="2" height="2" fill="#D9A066" />
<rect x="162" y="166" width="2" height="2" fill="#D9A066" />
<rect x="164" y="166" width="2" height="2" fill="#D9A066" />
<rect x="166" y="166" width="2" height="2" fill="#000000" />
<rect x="168" y="166" width="2" height="2" fill="#000000" />
<rect x="106" y="168" width="2" height="2" fill="#000000" />
<rect x="108" y="168" width="2" height="2" fill="#000000" />
<rect x="110" y="168" width="2" height="2" fill="#3F3F74" />
<rect x="112" y="168" width="2" height="2" fill="#3F3F74" />
<rect x="114" y="168" width="2" height="2" fill="#3F3F74" />
<rect x="116" y="168" width="2" height="2" fill="#3F3F74" />
<rect x="118" y="168" width="2" height="2" fill="#3F3F74" />
<rect x="120" y="168" width="2" height="2" fill="#3F3F74" />
<rect x="122" y="168" width="2" height="2" fill="#3F3F74" />
<rect x="124" y="168" width="2" height="2" fill="#3F3F74" />
<rect x="126" y="168" width="2" height="2" fill="#3F3F74" />
<rect x="128" y="168" width="2" height="2" fill="#3F3F74" />
<rect x="130" y="168" width="2" height="2" fill="#3F3F74" />
<rect x="132" y="168" width="2" height="2" fill="#3F3F74" />
<rect x="134" y="168" width="2" height="2" fill="#3F3F74" />
<rect x="136" y="168" width="2" height="2" fill="#3F3F74" />
<rect x="138" y="168" width="2" height="2" fill="#3F3F74" />
<rect x="140" y="168" width="2" height="2" fill="#3F3F74" />
<rect x="142" y="168" width="2" height="2" fill="#3F3F74" />
<rect x="144" y="168" width="2" height="2" fill="#3F3F74" />
<rect x="146" y="168" width="2" height="2" fill="#3F3F74" />
<rect x="148" y="168" width="2" height="2" fill="#3F3F74" />
<rect x="150" y="168" width="2" height="2" fill="#3F3F74" />
<rect x="152" y="168" width="2" height="2" fill="#000000" />
<rect x="154" y="168" width="2" height="2" fill="#000000" />
<rect x="156" y="168" width="2" height="2" fill="#D9A066" />
<rect x="158" y="168" width="2" height="2" fill="#D9A066" />
<rect x="160" y="168" width="2" height="2" fill="#D9A066" />
<rect x="162" y="168" width="2" height="2" fill="#D9A066" />
<rect x="164" y="168" width="2" height="2" fill="#000000" />
<rect x="166" y="168" width="2" height="2" fill="#000000" />
<rect x="106" y="170" width="2" height="2" fill="#000000" />
<rect x="108" y="170" width="2" height="2" fill="#3F3F74" />
<rect x="110" y="170" width="2" height="2" fill="#3F3F74" />
<rect x="112" y="170" width="2" height="2" fill="#3F3F74" />
<rect x="114" y="170" width="2" height="2" fill="#3F3F74" />
<rect x="116" y="170" width="2" height="2" fill="#3F3F74" />
<rect x="118" y="170" width="2" height="2" fill="#3F3F74" />
<rect x="120" y="170" width="2" height="2" fill="#3F3F74" />
<rect x="122" y="170" width="2" height="2" fill="#3F3F74" />
<rect x="124" y="170" width="2" height="2" fill="#3F3F74" />
<rect x="126" y="170" width="2" height="2" fill="#3F3F74" />
<rect x="128" y="170" width="2" height="2" fill="#3F3F74" />
<rect x="130" y="170" width="2" height="2" fill="#3F3F74" />
<rect x="132" y="170" width="2" height="2" fill="#3F3F74" />
<rect x="134" y="170" width="2" height="2" fill="#3F3F74" />
<rect x="136" y="170" width="2" height="2" fill="#3F3F74" />
<rect x="138" y="170" width="2" height="2" fill="#3F3F74" />
<rect x="140" y="170" width="2" height="2" fill="#3F3F74" />
<rect x="142" y="170" width="2" height="2" fill="#3F3F74" />
<rect x="144" y="170" width="2" height="2" fill="#3F3F74" />
<rect x="146" y="170" width="2" height="2" fill="#3F3F74" />
<rect x="148" y="170" width="2" height="2" fill="#3F3F74" />
<rect x="150" y="170" width="2" height="2" fill="#3F3F74" />
<rect x="152" y="170" width="2" height="2" fill="#3F3F74" />
<rect x="154" y="170" width="2" height="2" fill="#000000" />
<rect x="156" y="170" width="2" height="2" fill="#000000" />
<rect x="158" y="170" width="2" height="2" fill="#D9A066" />
<rect x="160" y="170" width="2" height="2" fill="#D9A066" />
<rect x="162" y="170" width="2" height="2" fill="#D9A066" />
<rect x="164" y="170" width="2" height="2" fill="#000000" />
<rect x="106" y="172" width="2" height="2" fill="#000000" />
<rect x="108" y="172" width="2" height="2" fill="#3F3F74" />
<rect x="110" y="172" width="2" height="2" fill="#3F3F74" />
<rect x="112" y="172" width="2" height="2" fill="#3F3F74" />
<rect x="114" y="172" width="2" height="2" fill="#3F3F74" />
<rect x="116" y="172" width="2" height="2" fill="#3F3F74" />
<rect x="118" y="172" width="2" height="2" fill="#3F3F74" />
<rect x="120" y="172" width="2" height="2" fill="#3F3F74" />
<rect x="122" y="172" width="2" height="2" fill="#3F3F74" />
<rect x="124" y="172" width="2" height="2" fill="#3F3F74" />
<rect x="126" y="172" width="2" height="2" fill="#3F3F74" />
<rect x="128" y="172" width="2" height="2" fill="#3F3F74" />
<rect x="130" y="172" width="2" height="2" fill="#3F3F74" />
<rect x="132" y="172" width="2" height="2" fill="#3F3F74" />
<rect x="134" y="172" width="2" height="2" fill="#3F3F74" />
<rect x="136" y="172" width="2" height="2" fill="#3F3F74" />
<rect x="138" y="172" width="2" height="2" fill="#3F3F74" />
<rect x="140" y="172" width="2" height="2" fill="#3F3F74" />
<rect x="142" y="172" width="2" height="2" fill="#3F3F74" />
<rect x="144" y="172" width="2" height="2" fill="#3F3F74" />
<rect x="146" y="172" width="2" height="2" fill="#3F3F74" />
<rect x="148" y="172" width="2" height="2" fill="#3F3F74" />
<rect x="150" y="172" width="2" height="2" fill="#3F3F74" />
<rect x="152" y="172" width="2" height="2" fill="#3F3F74" />
<rect x="154" y="172" width="2" height="2" fill="#3F3F74" />
<rect x="156" y="172" width="2" height="2" fill="#000000" />
<rect x="158" y="172" width="2" height="2" fill="#D9A066" />
<rect x="160" y="172" width="2" height="2" fill="#D9A066" />
<rect x="162" y="172" width="2" height="2" fill="#000000" />
<rect x="106" y="174" width="2" height="2" fill="#000000" />
<rect x="108" y="174" width="2" height="2" fill="#3F3F74" />
<rect x="110" y="174" width="2" height="2" fill="#3F3F74" />
<rect x="112" y="174" width="2" height="2" fill="#3F3F74" />
<rect x="114" y="174" width="2" height="2" fill="#3F3F74" />
<rect x="116" y="174" width="2" height="2" fill="#3F3F74" />
<rect x="118" y="174" width="2" height="2" fill="#3F3F74" />
<rect x="120" y="174" width="2" height="2" fill="#3F3F74" />
<rect x="122" y="174" width="2" height="2" fill="#3F3F74" />
<rect x="124" y="174" width="2" height="2" fill="#3F3F74" />
<rect x="126" y="174" width="2" height="2" fill="#3F3F74" />
<rect x="128" y="174" width="2" height="2" fill="#3F3F74" />
<rect x="130" y="174" width="2" height="2" fill="#3F3F74" />
<rect x="132" y="174" width="2" height="2" fill="#3F3F74" />
<rect x="134" y="174" width="2" height="2" fill="#3F3F74" />
<rect x="136" y="174" width="2" height="2" fill="#3F3F74" />
<rect x="138" y="174" width="2" height="2" fill="#3F3F74" />
<rect x="140" y="174" width="2" height="2" fill="#3F3F74" />
<rect x="142" y="174" width="2" height="2" fill="#3F3F74" />
<rect x="144" y="174" width="2" height="2" fill="#3F3F74" />
<rect x="146" y="174" width="2" height="2" fill="#3F3F74" />
<rect x="148" y="174" width="2" height="2" fill="#3F3F74" />
<rect x="150" y="174" width="2" height="2" fill="#3F3F74" />
<rect x="152" y="174" width="2" height="2" fill="#3F3F74" />
<rect x="154" y="174" width="2" height="2" fill="#3F3F74" />
<rect x="156" y="174" width="2" height="2" fill="#000000" />
<rect x="158" y="174" width="2" height="2" fill="#000000" />
<rect x="160" y="174" width="2" height="2" fill="#000000" />
<rect x="162" y="174" width="2" height="2" fill="#000000" />
<rect x="106" y="176" width="2" height="2" fill="#000000" />
<rect x="108" y="176" width="2" height="2" fill="#3F3F74" />
<rect x="110" y="176" width="2" height="2" fill="#3F3F74" />
<rect x="112" y="176" width="2" height="2" fill="#3F3F74" />
<rect x="114" y="176" width="2" height="2" fill="#3F3F74" />
<rect x="116" y="176" width="2" height="2" fill="#3F3F74" />
<rect x="118" y="176" width="2" height="2" fill="#3F3F74" />
<rect x="120" y="176" width="2" height="2" fill="#3F3F74" />
<rect x="122" y="176" width="2" height="2" fill="#3F3F74" />
<rect x="124" y="176" width="2" height="2" fill="#3F3F74" />
<rect x="126" y="176" width="2" height="2" fill="#3F3F74" />
<rect x="128" y="176" width="2" height="2" fill="#3F3F74" />
<rect x="130" y="176" width="2" height="2" fill="#3F3F74" />
<rect x="132" y="176" width="2" height="2" fill="#3F3F74" />
<rect x="134" y="176" width="2" height="2" fill="#3F3F74" />
<rect x="136" y="176" width="2" height="2" fill="#3F3F74" />
<rect x="138" y="176" width="2" height="2" fill="#3F3F74" />
<rect x="140" y="176" width="2" height="2" fill="#3F3F74" />
<rect x="142" y="176" width="2" height="2" fill="#3F3F74" />
<rect x="144" y="176" width="2" height="2" fill="#3F3F74" />
<rect x="146" y="176" width="2" height="2" fill="#3F3F74" />
<rect x="148" y="176" width="2" height="2" fill="#3F3F74" />
<rect x="150" y="176" width="2" height="2" fill="#3F3F74" />
<rect x="152" y="176" width="2" height="2" fill="#3F3F74" />
<rect x="154" y="176" width="2" height="2" fill="#3F3F74" />
<rect x="156" y="176" width="2" height="2" fill="#3F3F74" />
<rect x="158" y="176" width="2" height="2" fill="#000000" />
<rect x="160" y="176" width="2" height="2" fill="#000000" />
<rect x="106" y="178" width="2" height="2" fill="#000000" />
<rect x="108" y="178" width="2" height="2" fill="#3F3F74" />
<rect x="110" y="178" width="2" height="2" fill="#3F3F74" />
<rect x="112" y="178" width="2" height="2" fill="#3F3F74" />
<rect x="114" y="178" width="2" height="2" fill="#3F3F74" />
<rect x="116" y="178" width="2" height="2" fill="#3F3F74" />
<rect x="118" y="178" width="2" height="2" fill="#3F3F74" />
<rect x="120" y="178" width="2" height="2" fill="#3F3F74" />
<rect x="122" y="178" width="2" height="2" fill="#3F3F74" />
<rect x="124" y="178" width="2" height="2" fill="#3F3F74" />
<rect x="126" y="178" width="2" height="2" fill="#3F3F74" />
<rect x="128" y="178" width="2" height="2" fill="#3F3F74" />
<rect x="130" y="178" width="2" height="2" fill="#3F3F74" />
<rect x="132" y="178" width="2" height="2" fill="#3F3F74" />
<rect x="134" y="178" width="2" height="2" fill="#3F3F74" />
<rect x="136" y="178" width="2" height="2" fill="#3F3F74" />
<rect x="138" y="178" width="2" height="2" fill="#3F3F74" />
<rect x="140" y="178" width="2" height="2" fill="#3F3F74" />
<rect x="142" y="178" width="2" height="2" fill="#3F3F74" />
<rect x="144" y="178" width="2" height="2" fill="#3F3F74" />
<rect x="146" y="178" width="2" height="2" fill="#3F3F74" />
<rect x="148" y="178" width="2" height="2" fill="#3F3F74" />
<rect x="150" y="178" width="2" height="2" fill="#3F3F74" />
<rect x="152" y="178" width="2" height="2" fill="#3F3F74" />
<rect x="154" y="178" width="2" height="2" fill="#000000" />
<rect x="156" y="178" width="2" height="2" fill="#000000" />
<rect x="158" y="178" width="2" height="2" fill="#000000" />
<rect x="106" y="180" width="2" height="2" fill="#000000" />
<rect x="108" y="180" width="2" height="2" fill="#3F3F74" />
<rect x="110" y="180" width="2" height="2" fill="#3F3F74" />
<rect x="112" y="180" width="2" height="2" fill="#3F3F74" />
<rect x="114" y="180" width="2" height="2" fill="#3F3F74" />
<rect x="116" y="180" width="2" height="2" fill="#3F3F74" />
<rect x="118" y="180" width="2" height="2" fill="#3F3F74" />
<rect x="120" y="180" width="2" height="2" fill="#3F3F74" />
<rect x="122" y="180" width="2" height="2" fill="#3F3F74" />
<rect x="124" y="180" width="2" height="2" fill="#3F3F74" />
<rect x="126" y="180" width="2" height="2" fill="#3F3F74" />
<rect x="128" y="180" width="2" height="2" fill="#3F3F74" />
<rect x="130" y="180" width="2" height="2" fill="#3F3F74" />
<rect x="132" y="180" width="2" height="2" fill="#3F3F74" />
<rect x="134" y="180" width="2" height="2" fill="#3F3F74" />
<rect x="136" y="180" width="2" height="2" fill="#3F3F74" />
<rect x="138" y="180" width="2" height="2" fill="#3F3F74" />
<rect x="140" y="180" width="2" height="2" fill="#3F3F74" />
<rect x="142" y="180" width="2" height="2" fill="#3F3F74" />
<rect x="144" y="180" width="2" height="2" fill="#3F3F74" />
<rect x="146" y="180" width="2" height="2" fill="#3F3F74" />
<rect x="148" y="180" width="2" height="2" fill="#3F3F74" />
<rect x="150" y="180" width="2" height="2" fill="#000000" />
<rect x="152" y="180" width="2" height="2" fill="#000000" />
<rect x="154" y="180" width="2" height="2" fill="#000000" />
<rect x="106" y="182" width="2" height="2" fill="#000000" />
<rect x="108" y="182" width="2" height="2" fill="#3F3F74" />
<rect x="110" y="182" width="2" height="2" fill="#3F3F74" />
<rect x="112" y="182" width="2" height="2" fill="#3F3F74" />
<rect x="114" y="182" width="2" height="2" fill="#3F3F74" />
<rect x="116" y="182" width="2" height="2" fill="#3F3F74" />
<rect x="118" y="182" width="2" height="2" fill="#3F3F74" />
<rect x="120" y="182" width="2" height="2" fill="#3F3F74" />
<rect x="122" y="182" width="2" height="2" fill="#3F3F74" />
<rect x="124" y="182" width="2" height="2" fill="#3F3F74" />
<rect x="126" y="182" width="2" height="2" fill="#3F3F74" />
<rect x="128" y="182" width="2" height="2" fill="#3F3F74" />
<rect x="130" y="182" width="2" height="2" fill="#3F3F74" />
<rect x="132" y="182" width="2" height="2" fill="#3F3F74" />
<rect x="134" y="182" width="2" height="2" fill="#3F3F74" />
<rect x="136" y="182" width="2" height="2" fill="#3F3F74" />
<rect x="138" y="182" width="2" height="2" fill="#3F3F74" />
<rect x="140" y="182" width="2" height="2" fill="#3F3F74" />
<rect x="142" y="182" width="2" height="2" fill="#3F3F74" />
<rect x="144" y="182" width="2" height="2" fill="#000000" />
<rect x="146" y="182" width="2" height="2" fill="#000000" />
<rect x="148" y="182" width="2" height="2" fill="#000000" />
<rect x="150" y="182" width="2" height="2" fill="#000000" />
<rect x="106" y="184" width="2" height="2" fill="#000000" />
<rect x="108" y="184" width="2" height="2" fill="#000000" />
<rect x="110" y="184" width="2" height="2" fill="#000000" />
<rect x="112" y="184" width="2" height="2" fill="#3F3F74" />
<rect x="114" y="184" width="2" height="2" fill="#3F3F74" />
<rect x="116" y="184" width="2" height="2" fill="#000000" />
<rect x="118" y="184" width="2" height="2" fill="#000000" />
<rect x="120" y="184" width="2" height="2" fill="#000000" />
<rect x="122" y="184" width="2" height="2" fill="#000000" />
<rect x="124" y="184" width="2" height="2" fill="#000000" />
<rect x="126" y="184" width="2" height="2" fill="#000000" />
<rect x="128" y="184" width="2" height="2" fill="#000000" />
<rect x="130" y="184" width="2" height="2" fill="#000000" />
<rect x="132" y="184" width="2" height="2" fill="#000000" />
<rect x="134" y="184" width="2" height="2" fill="#000000" />
<rect x="136" y="184" width="2" height="2" fill="#000000" />
<rect x="138" y="184" width="2" height="2" fill="#000000" />
<rect x="140" y="184" width="2" height="2" fill="#000000" />
<rect x="142" y="184" width="2" height="2" fill="#000000" />
<rect x="144" y="184" width="2" height="2" fill="#000000" />
<rect x="110" y="186" width="2" height="2" fill="#000000" />
<rect x="112" y="186" width="2" height="2" fill="#000000" />
<rect x="114" y="186" width="2" height="2" fill="#000000" />
<rect x="116" y="186" width="2" height="2" fill="#000000" />
</svg>