<?xml version="1.0" encoding="UTF-8" ?>
<svg version="1.1" width="256" height="256" xmlns="http://www.w3.org/2000/svg" shape-rendering="crispEdges">
<rect x="84" y="114" width="2" height="2" fill="#000000" />
<rect x="86" y="114" width="2" height="2" fill="#000000" />
<rect x="88" y="114" width="2" height="2" fill="#000000" />
<rect x="90" y="114" width="2" height="2" fill="#000000" />
<rect x="92" y="114" width="2" height="2" fill="#000000" />
<rect x="94" y="114" width="2" height="2" fill="#000000" />
<rect x="96" y="114" width="2" height="2" fill="#000000" />
<rect x="98" y="114" width="2" height="2" fill="#000000" />
<rect x="100" y="114" width="2" height="2" fill="#000000" />
<rect x="102" y="114" width="2" height="2" fill="#000000" />
<rect x="104" y="114" width="2" height="2" fill="#000000" />
<rect x="106" y="114" width="2" height="2" fill="#000000" />
<rect x="82" y="116" width="2" height="2" fill="#000000" />
<rect x="84" y="116" width="2" height="2" fill="#000000" />
<rect x="86" y="116" width="2" height="2" fill="#3F3F74" />
<rect x="88" y="116" width="2" height="2" fill="#3F3F74" />
<rect x="90" y="116" width="2" height="2" fill="#3F3F74" />
<rect x="92" y="116" width="2" height="2" fill="#3F3F74" />
<rect x="94" y="116" width="2" height="2" fill="#3F3F74" />
<rect x="96" y="116" width="2" height="2" fill="#3F3F74" />
<rect x="98" y="116" width="2" height="2" fill="#3F3F74" />
<rect x="100" y="116" width="2" height="2" fill="#3F3F74" />
<rect x="102" y="116" width="2" height="2" fill="#3F3F74" />
<rect x="104" y="116" width="2" height="2" fill="#000000" />
<rect x="106" y="116" width="2" height="2" fill="#000000" />
<rect x="108" y="116" width="2" height="2" fill="#000000" />
<rect x="78" y="118" width="2" height="2" fill="#000000" />
<rect x="80" y="118" width="2" height="2" fill="#000000" />
<rect x="82" y="118" width="2" height="2" fill="#3F3F74" />
<rect x="84" y="118" width="2" height="2" fill="#3F3F74" />
<rect x="86" y="118" width="2" height="2" fill="#3F3F74" />
<rect x="88" y="118" width="2" height="2" fill="#3F3F74" />
<rect x="90" y="118" width="2" height="2" fill="#3F3F74" />
<rect x="92" y="118" width="2" height="2" fill="#3F3F74" />
<rect x="94" y="118" width="2" height="2" fill="#3F3F74" />
<rect x="96" y="118" width="2" height="2" fill="#3F3F74" />
<rect x="98" y="118" width="2" height="2" fill="#3F3F74" />
<rect x="100" y="118" width="2" height="2" fill="#3F3F74" />
<rect x="102" y="118" width="2" height="2" fill="#3F3F74" />
<rect x="104" y="118" width="2" height="2" fill="#3F3F74" />
<rect x="106" y="118" width="2" height="2" fill="#3F3F74" />
<rect x="108" y="118" width="2" height="2" fill="#000000" />
<rect x="110" y="118" width="2" height="2" fill="#000000" />
<rect x="112" y="118" width="2" height="2" fill="#000000" />
<rect x="78" y="120" width="2" height="2" fill="#000000" />
<rect x="80" y="120" width="2" height="2" fill="#3F3F74" />
<rect x="82" y="120" width="2" height="2" fill="#3F3F74" />
<rect x="84" y="120" width="2" height="2" fill="#3F3F74" />
<rect x="86" y="120" width="2" height="2" fill="#3F3F74" />
<rect x="88" y="120" width="2" height="2" fill="#3F3F74" />
<rect x="90" y="120" width="2" height="2" fill="#3F3F74" />
<rect x="92" y="120" width="2" height="2" fill="#3F3F74" />
<rect x="94" y="120" width="2" height="2" fill="#3F3F74" />
<rect x="96" y="120" width="2" height="2" fill="#3F3F74" />
<rect x="98" y="120" width="2" height="2" fill="#3F3F74" />
<rect x="100" y="120" width="2" height="2" fill="#3F3F74" />
<rect x="102" y="120" width="2" height="2" fill="#3F3F74" />
<rect x="104" y="120" width="2" height="2" fill="#3F3F74" />
<rect x="106" y="120" width="2" height="2" fill="#3F3F74" />
<rect x="108" y="120" width="2" height="2" fill="#3F3F74" />
<rect x="110" y="120" width="2" height="2" fill="#3F3F74" />
<rect x="112" y="120" width="2" height="2" fill="#000000" />
<rect x="114" y="120" width="2" height="2" fill="#000000" />
<rect x="116" y="120" width="2" height="2" fill="#000000" />
<rect x="118" y="120" width="2" height="2" fill="#000000" />
<rect x="120" y="120" width="2" height="2" fill="#000000" />
<rect x="122" y="120" width="2" height="2" fill="#000000" />
<rect x="124" y="120" width="2" height="2" fill="#000000" />
<rect x="78" y="122" width="2" height="2" fill="#000000" />
<rect x="80" y="122" width="2" height="2" fill="#3F3F74" />
<rect x="82" y="122" width="2" height="2" fill="#3F3F74" />
<rect x="84" y="122" width="2" height="2" fill="#3F3F74" />
<rect x="86" y="122" width="2" height="2" fill="#3F3F74" />
<rect x="88" y="122" width="2" height="2" fill="#3F3F74" />
<rect x="90" y="122" width="2" height="2" fill="#3F3F74" />
<rect x="92" y="122" width="2" height="2" fill="#3F3F74" />
<rect x="94" y="122" width="2" height="2" fill="#3F3F74" />
<rect x="96" y="122" width="2" height="2" fill="#3F3F74" />
<rect x="98" y="122" width="2" height="2" fill="#3F3F74" />
<rect x="100" y="122" width="2" height="2" fill="#3F3F74" />
<rect x="102" y="122" width="2" height="2" fill="#3F3F74" />
<rect x="104" y="122" width="2" height="2" fill="#3F3F74" />
<rect x="106" y="122" width="2" height="2" fill="#3F3F74" />
<rect x="108" y="122" width="2" height="2" fill="#3F3F74" />
<rect x="110" y="122" width="2" height="2" fill="#3F3F74" />
<rect x="112" y="122" width="2" height="2" fill="#3F3F74" />
<rect x="114" y="122" width="2" height="2" fill="#3F3F74" />
<rect x="116" y="122" width="2" height="2" fill="#3F3F74" />
<rect x="118" y="122" width="2" height="2" fill="#3F3F74" />
<rect x="120" y="122" width="2" height="2" fill="#3F3F74" />
<rect x="122" y="122" width="2" height="2" fill="#3F3F74" />
<rect x="124" y="122" width="2" height="2" fill="#000000" />
<rect x="126" y="122" width="2" height="2" fill="#000000" />
<rect x="170" y="122" width="2" height="2" fill="#000000" />
<rect x="172" y="122" width="2" height="2" fill="#000000" />
<rect x="78" y="124" width="2" height="2" fill="#000000" />
<rect x="80" y="124" width="2" height="2" fill="#3F3F74" />
<rect x="82" y="124" width="2" height="2" fill="#3F3F74" />
<rect x="84" y="124" width="2" height="2" fill="#3F3F74" />
<rect x="86" y="124" width="2" height="2" fill="#3F3F74" />
<rect x="88" y="124" width="2" height="2" fill="#3F3F74" />
<rect x="90" y="124" width="2" height="2" fill="#3F3F74" />
<rect x="92" y="124" width="2" height="2" fill="#3F3F74" />
<rect x="94" y="124" width="2" height="2" fill="#3F3F74" />
<rect x="96" y="124" width="2" height="2" fill="#3F3F74" />
<rect x="98" y="124" width="2" height="2" fill="#3F3F74" />
<rect x="100" y="124" width="2" height="2" fill="#3F3F74" />
<rect x="102" y="124" width="2" height="2" fill="#3F3F74" />
<rect x="104" y="124" width="2" height="2" fill="#3F3F74" />
<rect x="106" y="124" width="2" height="2" fill="#3F3F74" />
<rect x="108" y="124" width="2" height="2" fill="#3F3F74" />
<rect x="110" y="124" width="2" height="2" fill="#3F3F74" />
<rect x="112" y="124" width="2" height="2" fill="#3F3F74" />
<rect x="114" y="124" width="2" height="2" fill="#3F3F74" />
<rect x="116" y="124" width="2" height="2" fill="#3F3F74" />
<rect x="118" y="124" width="2" height="2" fill="#3F3F74" />
<rect x="120" y="124" width="2" height="2" fill="#3F3F74" />
<rect x="122" y="124" width="2" height="2" fill="#3F3F74" />
<rect x="124" y="124" width="2" height="2" fill="#000000" />
<rect x="126" y="124" width="2" height="2" fill="#000000" />
<rect x="128" y="124" width="2" height="2" fill="#000000" />
<rect x="130" y="124" width="2" height="2" fill="#000000" />
<rect x="132" y="124" width="2" height="2" fill="#000000" />
<rect x="134" y="124" width="2" height="2" fill="#000000" />
<rect x="136" y="124" width="2" height="2" fill="#000000" />
<rect x="138" y="124" width="2" height="2" fill="#000000" />
<rect x="140" y="124" width="2" height="2" fill="#000000" />
<rect x="142" y="124" width="2" height="2" fill="#000000" />
<rect x="170" y="124" width="2" height="2" fill="#000000" />
<rect x="172" y="124" width="2" height="2" fill="#000000" />
<rect x="174" y="124" width="2" height="2" fill="#FF0000" />
<rect x="176" y="124" width="2" height="2" fill="#000000" />
<rect x="78" y="126" width="2" height="2" fill="#000000" />
<rect x="80" y="126" width="2" height="2" fill="#3F3F74" />
<rect x="82" y="126" width="2" height="2" fill="#3F3F74" />
<rect x="84" y="126" width="2" height="2" fill="#3F3F74" />
<rect x="86" y="126" width="2" height="2" fill="#3F3F74" />
<rect x="88" y="126" width="2" height="2" fill="#3F3F74" />
<rect x="90" y="126" width="2" height="2" fill="#3F3F74" />
<rect x="92" y="126" width="2" height="2" fill="#3F3F74" />
<rect x="94" y="126" width="2" height="2" fill="#3F3F74" />
<rect x="96" y="126" width="2" height="2" fill="#3F3F74" />
<rect x="98" y="126" width="2" height="2" fill="#3F3F74" />
<rect x="100" y="126" width="2" height="2" fill="#3F3F74" />
<rect x="102" y="126" width="2" height="2" fill="#3F3F74" />
<rect x="104" y="126" width="2" height="2" fill="#3F3F74" />
<rect x="106" y="126" width="2" height="2" fill="#3F3F74" />
<rect x="108" y="126" width="2" height="2" fill="#3F3F74" />
<rect x="110" y="126" width="2" height="2" fill="#3F3F74" />
<rect x="112" y="126" width="2" height="2" fill="#3F3F74" />
<rect x="114" y="126" width="2" height="2" fill="#3F3F74" />
<rect x="116" y="126" width="2" height="2" fill="#3F3F74" />
<rect x="118" y="126" width="2" height="2" fill="#3F3F74" />
<rect x="120" y="126" width="2" height="2" fill="#3F3F74" />
<rect x="122" y="126" width="2" height="2" fill="#3F3F74" />
<rect x="124" y="126" width="2" height="2" fill="#3F3F74" />
<rect x="126" y="126" width="2" height="2" fill="#3F3F74" />
<rect x="128" y="126" width="2" height="2" fill="#000000" />
<rect x="130" y="126" width="2" height="2" fill="#000000" />
<rect x="132" y="126" width="2" height="2" fill="#000000" />
<rect x="134" y="126" width="2" height="2" fill="#000000" />
<rect x="136" y="126" width="2" height="2" fill="#000000" />
<rect x="138" y="126" width="2" height="2" fill="#000000" />
<rect x="140" y="126" width="2" height="2" fill="#000000" />
<rect x="142" y="126" width="2" height="2" fill="#000000" />
<rect x="144" y="126" width="2" height="2" fill="#000000" />
<rect x="146" y="126" width="2" height="2" fill="#000000" />
<rect x="148" y="126" width="2" height="2" fill="#000000" />
<rect x="150" y="126" width="2" height="2" fill="#000000" />
<rect x="152" y="126" width="2" height="2" fill="#000000" />
<rect x="154" y="126" width="2" height="2" fill="#000000" />
<rect x="170" y="126" width="2" height="2" fill="#000000" />
<rect x="172" y="126" width="2" height="2" fill="#000000" />
<rect x="174" y="126" width="2" height="2" fill="#000000" />
<rect x="176" y="126" width="2" height="2" fill="#000000" />
<rect x="178" y="126" width="2" height="2" fill="#000000" />
<rect x="180" y="126" width="2" height="2" fill="#000000" />
<rect x="182" y="126" width="2" height="2" fill="#000000" />
<rect x="184" y="126" width="2" height="2" fill="#000000" />
<rect x="186" y="126" width="2" height="2" fill="#000000" />
<rect x="188" y="126" width="2" height="2" fill="#000000" />
<rect x="190" y="126" width="2" height="2" fill="#000000" />
<rect x="192" y="126" width="2" height="2" fill="#000000" />
<rect x="194" y="126" width="2" height="2" fill="#000000" />
<rect x="196" y="126" width="2" height="2" fill="#000000" />
<rect x="198" y="126" width="2" height="2" fill="#000000" />
<rect x="200" y="126" width="2" height="2" fill="#000000" />
<rect x="202" y="126" width="2" height="2" fill="#000000" />
<rect x="78" y="128" width="2" height="2" fill="#000000" />
<rect x="80" y="128" width="2" height="2" fill="#3F3F74" />
<rect x="82" y="128" width="2" height="2" fill="#3F3F74" />
<rect x="84" y="128" width="2" height="2" fill="#3F3F74" />
<rect x="86" y="128" width="2" height="2" fill="#3F3F74" />
<rect x="88" y="128" width="2" height="2" fill="#3F3F74" />
<rect x="90" y="128" width="2" height="2" fill="#3F3F74" />
<rect x="92" y="128" width="2" height="2" fill="#3F3F74" />
<rect x="94" y="128" width="2" height="2" fill="#3F3F74" />
<rect x="96" y="128" width="2" height="2" fill="#3F3F74" />
<rect x="98" y="128" width="2" height="2" fill="#3F3F74" />
<rect x="100" y="128" width="2" height="2" fill="#3F3F74" />
<rect x="102" y="128" width="2" height="2" fill="#3F3F74" />
<rect x="104" y="128" width="2" height="2" fill="#3F3F74" />
<rect x="106" y="128" width="2" height="2" fill="#3F3F74" />
<rect x="108" y="128" width="2" height="2" fill="#3F3F74" />
<rect x="110" y="128" width="2" height="2" fill="#3F3F74" />
<rect x="112" y="128" width="2" height="2" fill="#3F3F74" />
<rect x="114" y="128" width="2" height="2" fill="#3F3F74" />
<rect x="116" y="128" width="2" height="2" fill="#3F3F74" />
<rect x="118" y="128" width="2" height="2" fill="#3F3F74" />
<rect x="120" y="128" width="2" height="2" fill="#3F3F74" />
<rect x="122" y="128" width="2" height="2" fill="#3F3F74" />
<rect x="124" y="128" width="2" height="2" fill="#3F3F74" />
<rect x="126" y="128" width="2" height="2" fill="#3F3F74" />
<rect x="128" y="128" width="2" height="2" fill="#000000" />
<rect x="130" y="128" width="2" height="2" fill="#D9A066" />
<rect x="132" y="128" width="2" height="2" fill="#D9A066" />
<rect x="134" y="128" width="2" height="2" fill="#D9A066" />
<rect x="136" y="128" width="2" height="2" fill="#D9A066" />
<rect x="138" y="128" width="2" height="2" fill="#D9A066" />
<rect x="140" y="128" width="2" height="2" fill="#D9A066" />
<rect x="142" y="128" width="2" height="2" fill="#D9A066" />
<rect x="144" y="128" width="2" height="2" fill="#D9A066" />
<rect x="146" y="128" width="2" height="2" fill="#D9A066" />
<rect x="148" y="128" width="2" height="2" fill="#D9A066" />
<rect x="150" y="128" width="2" height="2" fill="#D9A066" />
<rect x="152" y="128" width="2" height="2" fill="#D9A066" />
<rect x="154" y="128" width="2" height="2" fill="#D9A066" />
<rect x="156" y="128" width="2" height="2" fill="#000000" />
<rect x="158" y="128" width="2" height="2" fill="#000000" />
<rect x="160" y="128" width="2" height="2" fill="#000000" />
<rect x="162" y="128" width="2" height="2" fill="#000000" />
<rect x="164" y="128" width="2" height="2" fill="#000000" />
<rect x="166" y="128" width="2" height="2" fill="#000000" />
<rect x="168" y="128" width="2" height="2" fill="#000000" />
<rect x="170" y="128" width="2" height="2" fill="#000000" />
<rect x="172" y="128" width="2" height="2" fill="#000000" />
<rect x="174" y="128" width="2" height="2" fill="#000000" />
<rect x="176" y="128" width="2" height="2" fill="#000000" />
<rect x="178" y="128" width="2" height="2" fill="#000000" />
<rect x="180" y="128" width="2" height="2" fill="#000000" />
<rect x="182" y="128" width="2" height="2" fill="#000000" />
<rect x="184" y="128" width="2" height="2" fill="#000000" />
<rect x="186" y="128" width="2" height="2" fill="#000000" />
<rect x="188" y="128" width="2" height="2" fill="#000000" />
<rect x="190" y="128" width="2" height="2" fill="#000000" />
<rect x="192" y="128" width="2" height="2" fill="#000000" />
<rect x="194" y="128" width="2" height="2" fill="#000000" />
<rect x="196" y="128" width="2" height="2" fill="#000000" />
<rect x="198" y="128" width="2" height="2" fill="#000000" />
<rect x="200" y="128" width="2" height="2" fill="#000000" />
<rect x="202" y="128" width="2" height="2" fill="#000000" />
<rect x="204" y="128" width="2" height="2" fill="#000000" />
<rect x="78" y="130" width="2" height="2" fill="#000000" />
<rect x="80" y="130" width="2" height="2" fill="#3F3F74" />
<rect x="82" y="130" width="2" height="2" fill="#3F3F74" />
<rect x="84" y="130" width="2" height="2" fill="#3F3F74" />
<rect x="86" y="130" width="2" height="2" fill="#3F3F74" />
<rect x="88" y="130" width="2" height="2" fill="#3F3F74" />
<rect x="90" y="130" width="2" height="2" fill="#3F3F74" />
<rect x="92" y="130" width="2" height="2" fill="#3F3F74" />
<rect x="94" y="130" width="2" height="2" fill="#3F3F74" />
<rect x="96" y="130" width="2" height="2" fill="#3F3F74" />
<rect x="98" y="130" width="2" height="2" fill="#3F3F74" />
<rect x="100" y="130" width="2" height="2" fill="#3F3F74" />
<rect x="102" y="130" width="2" height="2" fill="#3F3F74" />
<rect x="104" y="130" width="2" height="2" fill="#3F3F74" />
<rect x="106" y="130" width="2" height="2" fill="#3F3F74" />
<rect x="108" y="130" width="2" height="2" fill="#3F3F74" />
<rect x="110" y="130" width="2" height="2" fill="#3F3F74" />
<rect x="112" y="130" width="2" height="2" fill="#3F3F74" />
<rect x="114" y="130" width="2" height="2" fill="#3F3F74" />
<rect x="116" y="130" width="2" height="2" fill="#3F3F74" />
<rect x="118" y="130" width="2" height="2" fill="#3F3F74" />
<rect x="120" y="130" width="2" height="2" fill="#3F3F74" />
<rect x="122" y="130" width="2" height="2" fill="#3F3F74" />
<rect x="124" y="130" width="2" height="2" fill="#3F3F74" />
<rect x="126" y="130" width="2" height="2" fill="#3F3F74" />
<rect x="128" y="130" width="2" height="2" fill="#000000" />
<rect x="130" y="130" width="2" height="2" fill="#D9A066" />
<rect x="132" y="130" width="2" height="2" fill="#D9A066" />
<rect x="134" y="130" width="2" height="2" fill="#D9A066" />
<rect x="136" y="130" width="2" height="2" fill="#D9A066" />
<rect x="138" y="130" width="2" height="2" fill="#D9A066" />
<rect x="140" y="130" width="2" height="2" fill="#D9A066" />
<rect x="142" y="130" width="2" height="2" fill="#D9A066" />
<rect x="144" y="130" width="2" height="2" fill="#D9A066" />
<rect x="146" y="130" width="2" height="2" fill="#D9A066" />
<rect x="148" y="130" width="2" height="2" fill="#D9A066" />
<rect x="150" y="130" width="2" height="2" fill="#D9A066" />
<rect x="152" y="130" width="2" height="2" fill="#D9A066" />
<rect x="154" y="130" width="2" height="2" fill="#D9A066" />
<rect x="156" y="130" width="2" height="2" fill="#D9A066" />
<rect x="158" y="130" width="2" height="2" fill="#D9A066" />
<rect x="160" y="130" width="2" height="2" fill="#D9A066" />
<rect x="162" y="130" width="2" height="2" fill="#D9A066" />
<rect x="164" y="130" width="2" height="2" fill="#D9A066" />
<rect x="166" y="130" width="2" height="2" fill="#D9A066" />
<rect x="168" y="130" width="2" height="2" fill="#D9A066" />
<rect x="170" y="130" width="2" height="2" fill="#000000" />
<rect x="172" y="130" width="2" height="2" fill="#000000" />
<rect x="174" y="130" width="2" height="2" fill="#000000" />
<rect x="176" y="130" width="2" height="2" fill="#000000" />
<rect x="178" y="130" width="2" height="2" fill="#000000" />
<rect x="180" y="130" width="2" height="2" fill="#000000" />
<rect x="182" y="130" width="2" height="2" fill="#000000" />
<rect x="184" y="130" width="2" height="2" fill="#000000" />
<rect x="186" y="130" width="2" height="2" fill="#000000" />
<rect x="188" y="130" width="2" height="2" fill="#000000" />
<rect x="190" y="130" width="2" height="2" fill="#000000" />
<rect x="192" y="130" width="2" height="2" fill="#000000" />
<rect x="194" y="130" width="2" height="2" fill="#000000" />
<rect x="196" y="130" width="2" height="2" fill="#000000" />
<rect x="198" y="130" width="2" height="2" fill="#000000" />
<rect x="200" y="130" width="2" height="2" fill="#000000" />
<rect x="202" y="130" width="2" height="2" fill="#000000" />
<rect x="204" y="130" width="2" height="2" fill="#000000" />
<rect x="78" y="132" width="2" height="2" fill="#000000" />
<rect x="80" y="132" width="2" height="2" fill="#000000" />
<rect x="82" y="132" width="2" height="2" fill="#3F3F74" />
<rect x="84" y="132" width="2" height="2" fill="#3F3F74" />
<rect x="86" y="132" width="2" height="2" fill="#3F3F74" />
<rect x="88" y="132" width="2" height="2" fill="#3F3F74" />
<rect x="90" y="132" width="2" height="2" fill="#3F3F74" />
<rect x="92" y="132" width="2" height="2" fill="#3F3F74" />
<rect x="94" y="132" width="2" height="2" fill="#3F3F74" />
<rect x="96" y="132" width="2" height="2" fill="#3F3F74" />
<rect x="98" y="132" width="2" height="2" fill="#3F3F74" />
<rect x="100" y="132" width="2" height="2" fill="#3F3F74" />
<rect x="102" y="132" width="2" height="2" fill="#3F3F74" />
<rect x="104" y="132" width="2" height="2" fill="#3F3F74" />
<rect x="106" y="132" width="2" height="2" fill="#3F3F74" />
<rect x="108" y="132" width="2" height="2" fill="#3F3F74" />
<rect x="110" y="132" width="2" height="2" fill="#3F3F74" />
<rect x="112" y="132" width="2" height="2" fill="#3F3F74" />
<rect x="114" y="132" width="2" height="2" fill="#3F3F74" />
<rect x="116" y="132" width="2" height="2" fill="#3F3F74" />
<rect x="118" y="132" width="2" height="2" fill="#3F3F74" />
<rect x="120" y="132" width="2" height="2" fill="#3F3F74" />
<rect x="122" y="132" width="2" height="2" fill="#3F3F74" />
<rect x="124" y="132" width="2" height="2" fill="#3F3F74" />
<rect x="126" y="132" width="2" height="2" fill="#3F3F74" />
<rect x="128" y="132" width="2" height="2" fill="#000000" />
<rect x="130" y="132" width="2" height="2" fill="#D9A066" />
<rect x="132" y="132" width="2" height="2" fill="#D9A066" />
<rect x="134" y="132" width="2" height="2" fill="#D9A066" />
<rect x="136" y="132" width="2" height="2" fill="#D9A066" />
<rect x="138" y="132" width="2" height="2" fill="#D9A066" />
<rect x="140" y="132" width="2" height="2" fill="#D9A066" />
<rect x="142" y="132" width="2" height="2" fill="#D9A066" />
<rect x="144" y="132" width="2" height="2" fill="#D9A066" />
<rect x="146" y="132" width="2" height="2" fill="#D9A066" />
<rect x="148" y="132" width="2" height="2" fill="#D9A066" />
<rect x="150" y="132" width="2" height="2" fill="#D9A066" />
<rect x="152" y="132" width="2" height="2" fill="#D9A066" />
<rect x="154" y="132" width="2" height="2" fill="#D9A066" />
<rect x="156" y="132" width="2" height="2" fill="#D9A066" />
<rect x="158" y="132" width="2" height="2" fill="#D9A066" />
<rect x="160" y="132" width="2" height="2" fill="#D9A066" />
<rect x="162" y="132" width="2" height="2" fill="#D9A066" />
<rect x="164" y="132" width="2" height="2" fill="#D9A066" />
<rect x="166" y="132" width="2" height="2" fill="#D9A066" />
<rect x="168" y="132" width="2" height="2" fill="#D9A066" />
<rect x="170" y="132" width="2" height="2" fill="#000000" />
<rect x="172" y="132" width="2" height="2" fill="#000000" />
<rect x="174" y="132" width="2" height="2" fill="#000000" />
<rect x="176" y="132" width="2" height="2" fill="#000000" />
<rect x="178" y="132" width="2" height="2" fill="#000000" />
<rect x="180" y="132" width="2" height="2" fill="#000000" />
<rect x="182" y="132" width="2" height="2" fill="#000000" />
<rect x="184" y="132" width="2" height="2" fill="#000000" />
<rect x="186" y="132" width="2" height="2" fill="#000000" />
<rect x="188" y="132" width="2" height="2" fill="#000000" />
<rect x="190" y="132" width="2" height="2" fill="#000000" />
<rect x="192" y="132" width="2" height="2" fill="#000000" />
<rect x="194" y="132" width="2" height="2" fill="#000000" />
<rect x="196" y="132" width="2" height="2" fill="#000000" />
<rect x="198" y="132" width="2" height="2" fill="#000000" />
<rect x="200" y="132" width="2" height="2" fill="#000000" />
<rect x="202" y="132" width="2" height="2" fill="#000000" />
<rect x="204" y="132" width="2" height="2" fill="#000000" />
<rect x="78" y="134" width="2" height="2" fill="#000000" />
<rect x="80" y="134" width="2" height="2" fill="#000000" />
<rect x="82" y="134" width="2" height="2" fill="#3F3F74" />
<rect x="84" y="134" width="2" height="2" fill="#3F3F74" />
<rect x="86" y="134" width="2" height="2" fill="#3F3F74" />
<rect x="88" y="134" width="2" height="2" fill="#3F3F74" />
<rect x="90" y="134" width="2" height="2" fill="#3F3F74" />
<rect x="92" y="134" width="2" height="2" fill="#3F3F74" />
<rect x="94" y="134" width="2" height="2" fill="#3F3F74" />
<rect x="96" y="134" width="2" height="2" fill="#3F3F74" />
<rect x="98" y="134" width="2" height="2" fill="#3F3F74" />
<rect x="100" y="134" width="2" height="2" fill="#3F3F74" />
<rect x="102" y="134" width="2" height="2" fill="#3F3F74" />
<rect x="104" y="134" width="2" height="2" fill="#3F3F74" />
<rect x="106" y="134" width="2" height="2" fill="#3F3F74" />
<rect x="108" y="134" width="2" height="2" fill="#3F3F74" />
<rect x="110" y="134" width="2" height="2" fill="#3F3F74" />
<rect x="112" y="134" width="2" height="2" fill="#3F3F74" />
<rect x="114" y="134" width="2" height="2" fill="#3F3F74" />
<rect x="116" y="134" width="2" height="2" fill="#3F3F74" />
<rect x="118" y="134" width="2" height="2" fill="#3F3F74" />
<rect x="120" y="134" width="2" height="2" fill="#3F3F74" />
<rect x="122" y="134" width="2" height="2" fill="#3F3F74" />
<rect x="124" y="134" width="2" height="2" fill="#3F3F74" />
<rect x="126" y="134" width="2" height="2" fill="#3F3F74" />
<rect x="128" y="134" width="2" height="2" fill="#000000" />
<rect x="130" y="134" width="2" height="2" fill="#D9A066" />
<rect x="132" y="134" width="2" height="2" fill="#D9A066" />
<rect x="134" y="134" width="2" height="2" fill="#D9A066" />
<rect x="136" y="134" width="2" height="2" fill="#D9A066" />
<rect x="138" y="134" width="2" height="2" fill="#D9A066" />
<rect x="140" y="134" width="2" height="2" fill="#D9A066" />
<rect x="142" y="134" width="2" height="2" fill="#D9A066" />
<rect x="144" y="134" width="2" height="2" fill="#D9A066" />
<rect x="146" y="134" width="2" height="2" fill="#D9A066" />
<rect x="148" y="134" width="2" height="2" fill="#D9A066" />
<rect x="150" y="134" width="2" height="2" fill="#D9A066" />
<rect x="152" y="134" width="2" height="2" fill="#D9A066" />
<rect x="154" y="134" width="2" height="2" fill="#D9A066" />
<rect x="156" y="134" width="2" height="2" fill="#D9A066" />
<rect x="158" y="134" width="2" height="2" fill="#D9A066" />
<rect x="160" y="134" width="2" height="2" fill="#D9A066" />
<rect x="162" y="134" width="2" height="2" fill="#D9A066" />
<rect x="164" y="134" width="2" height="2" fill="#D9A066" />
<rect x="166" y="134" width="2" height="2" fill="#D9A066" />
<rect x="168" y="134" width="2" height="2" fill="#D9A066" />
<rect x="170" y="134" width="2" height="2" fill="#000000" />
<rect x="172" y="134" width="2" height="2" fill="#000000" />
<rect x="174" y="134" width="2" height="2" fill="#000000" />
<rect x="176" y="134" width="2" height="2" fill="#000000" />
<rect x="178" y="134" width="2" height="2" fill="#000000" />
<rect x="180" y="134" width="2" height="2" fill="#000000" />
<rect x="182" y="134" width="2" height="2" fill="#000000" />
<rect x="184" y="134" width="2" height="2" fill="#000000" />
<rect x="186" y="134" width="2" height="2" fill="#000000" />
<rect x="188" y="134" width="2" height="2" fill="#000000" />
<rect x="190" y="134" width="2" height="2" fill="#000000" />
<rect x="192" y="134" width="2" height="2" fill="#000000" />
<rect x="194" y="134" width="2" height="2" fill="#000000" />
<rect x="196" y="134" width="2" height="2" fill="#000000" />
<rect x="198" y="134" width="2" height="2" fill="#000000" />
<rect x="200" y="134" width="2" height="2" fill="#000000" />
<rect x="202" y="134" width="2" height="2" fill="#000000" />
<rect x="204" y="134" width="2" height="2" fill="#000000" />
<rect x="80" y="136" width="2" height="2" fill="#000000" />
<rect x="82" y="136" width="2" height="2" fill="#000000" />
<rect x="84" y="136" width="2" height="2" fill="#3F3F74" />
<rect x="86" y="136" width="2" height="2" fill="#3F3F74" />
<rect x="88" y="136" width="2" height="2" fill="#3F3F74" />
<rect x="90" y="136" width="2" height="2" fill="#3F3F74" />
<rect x="92" y="136" width="2" height="2" fill="#3F3F74" />
<rect x="94" y="136" width="2" height="2" fill="#3F3F74" />
<rect x="96" y="136" width="2" height="2" fill="#3F3F74" />
<rect x="98" y="136" width="2" height="2" fill="#3F3F74" />
<rect x="100" y="136" width="2" height="2" fill="#3F3F74" />
<rect x="102" y="136" width="2" height="2" fill="#3F3F74" />
<rect x="104" y="136" width="2" height="2" fill="#3F3F74" />
<rect x="106" y="136" width="2" height="2" fill="#3F3F74" />
<rect x="108" y="136" width="2" height="2" fill="#3F3F74" />
<rect x="110" y="136" width="2" height="2" fill="#3F3F74" />
<rect x="112" y="136" width="2" height="2" fill="#3F3F74" />
<rect x="114" y="136" width="2" height="2" fill="#3F3F74" />
<rect x="116" y="136" width="2" height="2" fill="#3F3F74" />
<rect x="118" y="136" width="2" height="2" fill="#3F3F74" />
<rect x="120" y="136" width="2" height="2" fill="#3F3F74" />
<rect x="122" y="136" width="2" height="2" fill="#3F3F74" />
<rect x="124" y="136" width="2" height="2" fill="#3F3F74" />
<rect x="126" y="136" width="2" height="2" fill="#3F3F74" />
<rect x="128" y="136" width="2" height="2" fill="#000000" />
<rect x="130" y="136" width="2" height="2" fill="#D9A066" />
<rect x="132" y="136" width="2" height="2" fill="#D9A066" />
<rect x="134" y="136" width="2" height="2" fill="#D9A066" />
<rect x="136" y="136" width="2" height="2" fill="#D9A066" />
<rect x="138" y="136" width="2" height="2" fill="#D9A066" />
<rect x="140" y="136" width="2" height="2" fill="#D9A066" />
<rect x="142" y="136" width="2" height="2" fill="#D9A066" />
<rect x="144" y="136" width="2" height="2" fill="#D9A066" />
<rect x="146" y="136" width="2" height="2" fill="#D9A066" />
<rect x="148" y="136" width="2" height="2" fill="#D9A066" />
<rect x="150" y="136" width="2" height="2" fill="#D9A066" />
<rect x="152" y="136" width="2" height="2" fill="#D9A066" />
<rect x="154" y="136" width="2" height="2" fill="#D9A066" />
<rect x="156" y="136" width="2" height="2" fill="#D9A066" />
<rect x="158" y="136" width="2" height="2" fill="#D9A066" />
<rect x="160" y="136" width="2" height="2" fill="#D9A066" />
<rect x="162" y="136" width="2" height="2" fill="#D9A066" />
<rect x="164" y="136" width="2" height="2" fill="#D9A066" />
<rect x="166" y="136" width="2" height="2" fill="#D9A066" />
<rect x="168" y="136" width="2" height="2" fill="#D9A066" />
<rect x="170" y="136" width="2" height="2" fill="#000000" />
<rect x="172" y="136" width="2" height="2" fill="#000000" />
<rect x="174" y="136" width="2" height="2" fill="#000000" />
<rect x="176" y="136" width="2" height="2" fill="#000000" />
<rect x="178" y="136" width="2" height="2" fill="#000000" />
<rect x="180" y="136" width="2" height="2" fill="#000000" />
<rect x="182" y="136" width="2" height="2" fill="#000000" />
<rect x="184" y="136" width="2" height="2" fill="#000000" />
<rect x="186" y="136" width="2" height="2" fill="#000000" />
<rect x="188" y="136" width="2" height="2" fill="#000000" />
<rect x="190" y="136" width="2" height="2" fill="#000000" />
<rect x="192" y="136" width="2" height="2" fill="#000000" />
<rect x="194" y="136" width="2" height="2" fill="#000000" />
<rect x="196" y="136" width="2" height="2" fill="#000000" />
<rect x="198" y="136" width="2" height="2" fill="#000000" />
<rect x="200" y="136" width="2" height="2" fill="#000000" />
<rect x="202" y="136" width="2" height="2" fill="#000000" />
<rect x="80" y="138" width="2" height="2" fill="#000000" />
<rect x="82" y="138" width="2" height="2" fill="#000000" />
<rect x="84" y="138" width="2" height="2" fill="#000000" />
<rect x="86" y="138" width="2" height="2" fill="#3F3F74" />
<rect x="88" y="138" width="2" height="2" fill="#3F3F74" />
<rect x="90" y="138" width="2" height="2" fill="#3F3F74" />
<rect x="92" y="138" width="2" height="2" fill="#3F3F74" />
<rect x="94" y="138" width="2" height="2" fill="#3F3F74" />
<rect x="96" y="138" width="2" height="2" fill="#3F3F74" />
<rect x="98" y="138" width="2" height="2" fill="#3F3F74" />
<rect x="100" y="138" width="2" height="2" fill="#3F3F74" />
<rect x="102" y="138" width="2" height="2" fill="#3F3F74" />
<rect x="104" y="138" width="2" height="2" fill="#3F3F74" />
<rect x="106" y="138" width="2" height="2" fill="#3F3F74" />
<rect x="108" y="138" width="2" height="2" fill="#3F3F74" />
<rect x="110" y="138" width="2" height="2" fill="#3F3F74" />
<rect x="112" y="138" width="2" height="2" fill="#3F3F74" />
<rect x="114" y="138" width="2" height="2" fill="#3F3F74" />
<rect x="116" y="138" width="2" height="2" fill="#3F3F74" />
<rect x="118" y="138" width="2" height="2" fill="#3F3F74" />
<rect x="120" y="138" width="2" height="2" fill="#3F3F74" />
<rect x="122" y="138" width="2" height="2" fill="#3F3F74" />
<rect x="124" y="138" width="2" height="2" fill="#3F3F74" />
<rect x="126" y="138" width="2" height="2" fill="#3F3F74" />
<rect x="128" y="138" width="2" height="2" fill="#000000" />
<rect x="130" y="138" width="2" height="2" fill="#D9A066" />
<rect x="132" y="138" width="2" height="2" fill="#D9A066" />
<rect x="134" y="138" width="2" height="2" fill="#D9A066" />
<rect x="136" y="138" width="2" height="2" fill="#D9A066" />
<rect x="138" y="138" width="2" height="2" fill="#D9A066" />
<rect x="140" y="138" width="2" height="2" fill="#D9A066" />
<rect x="142" y="138" width="2" height="2" fill="#D9A066" />
<rect x="144" y="138" width="2" height="2" fill="#D9A066" />
<rect x="146" y="138" width="2" height="2" fill="#D9A066" />
<rect x="148" y="138" width="2" height="2" fill="#D9A066" />
<rect x="150" y="138" width="2" height="2" fill="#D9A066" />
<rect x="152" y="138" width="2" height="2" fill="#D9A066" />
<rect x="154" y="138" width="2" height="2" fill="#D9A066" />
<rect x="156" y="138" width="2" height="2" fill="#D9A066" />
<rect x="158" y="138" width="2" height="2" fill="#D9A066" />
<rect x="160" y="138" width="2" height="2" fill="#D9A066" />
<rect x="162" y="138" width="2" height="2" fill="#D9A066" />
<rect x="164" y="138" width="2" height="2" fill="#D9A066" />
<rect x="166" y="138" width="2" height="2" fill="#D9A066" />
<rect x="168" y="138" width="2" height="2" fill="#D9A066" />
<rect x="170" y="138" width="2" height="2" fill="#D9A066" />
<rect x="172" y="138" width="2" height="2" fill="#D9A066" />
<rect x="174" y="138" width="2" height="2" fill="#D9A066" />
<rect x="176" y="138" width="2" height="2" fill="#D9A066" />
<rect x="178" y="138" width="2" height="2" fill="#D9A066" />
<rect x="180" y="138" width="2" height="2" fill="#D9A066" />
<rect x="182" y="138" width="2" height="2" fill="#D9A066" />
<rect x="184" y="138" width="2" height="2" fill="#D9A066" />
<rect x="186" y="138" width="2" height="2" fill="#000000" />
<rect x="84" y="140" width="2" height="2" fill="#000000" />
<rect x="86" y="140" width="2" height="2" fill="#000000" />
<rect x="88" y="140" width="2" height="2" fill="#3F3F74" />
<rect x="90" y="140" width="2" height="2" fill="#3F3F74" />
<rect x="92" y="140" width="2" height="2" fill="#3F3F74" />
<rect x="94" y="140" width="2" height="2" fill="#3F3F74" />
<rect x="96" y="140" width="2" height="2" fill="#3F3F74" />
<rect x="98" y="140" width="2" height="2" fill="#3F3F74" />
<rect x="100" y="140" width="2" height="2" fill="#3F3F74" />
<rect x="102" y="140" width="2" height="2" fill="#3F3F74" />
<rect x="104" y="140" width="2" height="2" fill="#3F3F74" />
<rect x="106" y="140" width="2" height="2" fill="#3F3F74" />
<rect x="108" y="140" width="2" height="2" fill="#3F3F74" />
<rect x="110" y="140" width="2" height="2" fill="#3F3F74" />
<rect x="112" y="140" width="2" height="2" fill="#3F3F74" />
<rect x="114" y="140" width="2" height="2" fill="#3F3F74" />
<rect x="116" y="140" width="2" height="2" fill="#3F3F74" />
<rect x="118" y="140" width="2" height="2" fill="#3F3F74" />
<rect x="120" y="140" width="2" height="2" fill="#3F3F74" />
<rect x="122" y="140" width="2" height="2" fill="#3F3F74" />
<rect x="124" y="140" width="2" height="2" fill="#3F3F74" />
<rect x="126" y="140" width="2" height="2" fill="#3F3F74" />
<rect x="128" y="140" width="2" height="2" fill="#000000" />
<rect x="130" y="140" width="2" height="2" fill="#D9A066" />
<rect x="132" y="140" width="2" height="2" fill="#D9A066" />
<rect x="134" y="140" width="2" height="2" fill="#D9A066" />
<rect x="136" y="140" width="2" height="2" fill="#D9A066" />
<rect x="138" y="140" width="2" height="2" fill="#D9A066" />
<rect x="140" y="140" width="2" height="2" fill="#D9A066" />
<rect x="142" y="140" width="2" height="2" fill="#D9A066" />
<rect x="144" y="140" width="2" height="2" fill="#D9A066" />
<rect x="146" y="140" width="2" height="2" fill="#D9A066" />
<rect x="148" y="140" width="2" height="2" fill="#D9A066" />
<rect x="150" y="140" width="2" height="2" fill="#D9A066" />
<rect x="152" y="140" width="2" height="2" fill="#D9A066" />
<rect x="154" y="140" width="2" height="2" fill="#D9A066" />
<rect x="156" y="140" width="2" height="2" fill="#D9A066" />
<rect x="158" y="140" width="2" height="2" fill="#D9A066" />
<rect x="160" y="140" width="2" height="2" fill="#D9A066" />
<rect x="162" y="140" width="2" height="2" fill="#D9A066" />
<rect x="164" y="140" width="2" height="2" fill="#D9A066" />
<rect x="166" y="140" width="2" height="2" fill="#D9A066" />
<rect x="168" y="140" width="2" height="2" fill="#D9A066" />
<rect x="170" y="140" width="2" height="2" fill="#D9A066" />
<rect x="172" y="140" width="2" height="2" fill="#D9A066" />
<rect x="174" y="140" width="2" height="2" fill="#D9A066" />
<rect x="176" y="140" width="2" height="2" fill="#D9A066" />
<rect x="178" y="140" width="2" height="2" fill="#D9A066" />
<rect x="180" y="140" width="2" height="2" fill="#D9A066" />
<rect x="182" y="140" width="2" height="2" fill="#D9A066" />
<rect x="184" y="140" width="2" height="2" fill="#D9A066" />
<rect x="186" y="140" width="2" height="2" fill="#000000" />
<rect x="86" y="142" width="2" height="2" fill="#000000" />
<rect x="88" y="142" width="2" height="2" fill="#000000" />
<rect x="90" y="142" width="2" height="2" fill="#000000" />
<rect x="92" y="142" width="2" height="2" fill="#000000" />
<rect x="94" y="142" width="2" height="2" fill="#000000" />
<rect x="96" y="142" width="2" height="2" fill="#000000" />
<rect x="98" y="142" width="2" height="2" fill="#000000" />
<rect x="100" y="142" width="2" height="2" fill="#000000" />
<rect x="102" y="142" width="2" height="2" fill="#000000" />
<rect x="104" y="142" width="2" height="2" fill="#000000" />
<rect x="106" y="142" width="2" height="2" fill="#000000" />
<rect x="108" y="142" width="2" height="2" fill="#000000" />
<rect x="110" y="142" width="2" height="2" fill="#000000" />
<rect x="112" y="142" width="2" height="2" fill="#000000" />
<rect x="114" y="142" width="2" height="2" fill="#000000" />
<rect x="116" y="142" width="2" height="2" fill="#000000" />
<rect x="118" y="142" width="2" height="2" fill="#000000" />
<rect x="120" y="142" width="2" height="2" fill="#000000" />
<rect x="122" y="142" width="2" height="2" fill="#000000" />
<rect x="124" y="142" width="2" height="2" fill="#000000" />
<rect x="126" y="142" width="2" height="2" fill="#000000" />
<rect x="128" y="142" width="2" height="2" fill="#000000" />
<rect x="130" y="142" width="2" height="2" fill="#D9A066" />
<rect x="132" y="142" width="2" height="2" fill="#D9A066" />
<rect x="134" y="142" width="2" height="2" fill="#D9A066" />
<rect x="136" y="142" width="2" height="2" fill="#D9A066" />
<rect x="138" y="142" width="2" height="2" fill="#D9A066" />
<rect x="140" y="142" width="2" height="2" fill="#D9A066" />
<rect x="142" y="142" width="2" height="2" fill="#D9A066" />
<rect x="144" y="142" width="2" height="2" fill="#D9A066" />
<rect x="146" y="142" width="2" height="2" fill="#D9A066" />
<rect x="148" y="142" width="2" height="2" fill="#D9A066" />
<rect x="150" y="142" width="2" height="2" fill="#D9A066" />
<rect x="152" y="142" width="2" height="2" fill="#D9A066" />
<rect x="154" y="142" width="2" height="2" fill="#D9A066" />
<rect x="156" y="142" width="2" height="2" fill="#D9A066" />
<rect x="158" y="142" width="2" height="2" fill="#D9A066" />
<rect x="160" y="142" width="2" height="2" fill="#D9A066" />
<rect x="162" y="142" width="2" height="2" fill="#D9A066" />
<rect x="164" y="142" width="2" height="2" fill="#D9A066" />
<rect x="166" y="142" width="2" height="2" fill="#D9A066" />
<rect x="168" y="142" width="2" height="2" fill="#D9A066" />
<rect x="170" y="142" width="2" height="2" fill="#D9A066" />
<rect x="172" y="142" width="2" height="2" fill="#D9A066" />
<rect x="174" y="142" width="2" height="2" fill="#D9A066" />
<rect x="176" y="142" width="2" height="2" fill="#000000" />
<rect x="178" y="142" width="2" height="2" fill="#000000" />
<rect x="180" y="142" width="2" height="2" fill="#000000" />
<rect x="182" y="142" width="2" height="2" fill="#000000" />
<rect x="184" y="142" width="2" height="2" fill="#000000" />
<rect x="92" y="144" width="2" height="2" fill="#000000" />
<rect x="94" y="144" width="2" height="2" fill="#000000" />
<rect x="96" y="144" width="2" height="2" fill="#000000" />
<rect x="98" y="144" width="2" height="2" fill="#000000" />
<rect x="100" y="144" width="2" height="2" fill="#000000" />
<rect x="102" y="144" width="2" height="2" fill="#000000" />
<rect x="104" y="144" width="2" height="2" fill="#000000" />
<rect x="106" y="144" width="2" height="2" fill="#000000" />
<rect x="108" y="144" width="2" height="2" fill="#000000" />
<rect x="110" y="144" width="2" height="2" fill="#000000" />
<rect x="112" y="144" width="2" height="2" fill="#000000" />
<rect x="114" y="144" width="2" height="2" fill="#000000" />
<rect x="116" y="144" width="2" height="2" fill="#000000" />
<rect x="118" y="144" width="2" height="2" fill="#000000" />
<rect x="120" y="144" width="2" height="2" fill="#000000" />
<rect x="122" y="144" width="2" height="2" fill="#000000" />
<rect x="124" y="144" width="2" height="2" fill="#000000" />
<rect x="126" y="144" width="2" height="2" fill="#000000" />
<rect x="128" y="144" width="2" height="2" fill="#000000" />
<rect x="130" y="144" width="2" height="2" fill="#000000" />
<rect x="132" y="144" width="2" height="2" fill="#000000" />
<rect x="134" y="144" width="2" height="2" fill="#000000" />
<rect x="136" y="144" width="2" height="2" fill="#000000" />
<rect x="138" y="144" width="2" height="2" fill="#000000" />
<rect x="140" y="144" width="2" height="2" fill="#000000" />
<rect x="142" y="144" width="2" height="2" fill="#000000" />
<rect x="144" y="144" width="2" height="2" fill="#000000" />
<rect x="146" y="144" width="2" height="2" fill="#000000" />
<rect x="148" y="144" width="2" height="2" fill="#D9A066" />
<rect x="150" y="144" width="2" height="2" fill="#D9A066" />
<rect x="152" y="144" width="2" height="2" fill="#D9A066" />
<rect x="154" y="144" width="2" height="2" fill="#D9A066" />
<rect x="156" y="144" width="2" height="2" fill="#D9A066" />
<rect x="158" y="144" width="2" height="2" fill="#D9A066" />
<rect x="160" y="144" width="2" height="2" fill="#D9A066" />
<rect x="162" y="144" width="2" height="2" fill="#D9A066" />
<rect x="164" y="144" width="2" height="2" fill="#D9A066" />
<rect x="166" y="144" width="2" height="2" fill="#D9A066" />
<rect x="168" y="144" width="2" height="2" fill="#D9A066" />
<rect x="170" y="144" width="2" height="2" fill="#D9A066" />
<rect x="172" y="144" width="2" height="2" fill="#D9A066" />
<rect x="174" y="144" width="2" height="2" fill="#D9A066" />
<rect x="176" y="144" width="2" height="2" fill="#D9A066" />
<rect x="178" y="144" width="2" height="2" fill="#D9A066" />
<rect x="180" y="144" width="2" height="2" fill="#D9A066" />
<rect x="182" y="144" width="2" height="2" fill="#D9A066" />
<rect x="184" y="144" width="2" height="2" fill="#000000" />
<rect x="126" y="146" width="2" height="2" fill="#000000" />
<rect x="128" y="146" width="2" height="2" fill="#000000" />
<rect x="130" y="146" width="2" height="2" fill="#000000" />
<rect x="132" y="146" width="2" height="2" fill="#000000" />
<rect x="134" y="146" width="2" height="2" fill="#000000" />
<rect x="136" y="146" width="2" height="2" fill="#000000" />
<rect x="138" y="146" width="2" height="2" fill="#000000" />
<rect x="140" y="146" width="2" height="2" fill="#000000" />
<rect x="142" y="146" width="2" height="2" fill="#000000" />
<rect x="144" y="146" width="2" height="2" fill="#000000" />
<rect x="146" y="146" width="2" height="2" fill="#000000" />
<rect x="148" y="146" width="2" height="2" fill="#000000" />
<rect x="150" y="146" width="2" height="2" fill="#000000" />
<rect x="152" y="146" width="2" height="2" fill="#000000" />
<rect x="154" y="146" width="2" height="2" fill="#D9A066" />
<rect x="156" y="146" width="2" height="2" fill="#D9A066" />
<rect x="158" y="146" width="2" height="2" fill="#D9A066" />
<rect x="160" y="146" width="2" height="2" fill="#D9A066" />
<rect x="162" y="146" width="2" height="2" fill="#D9A066" />
<rect x="164" y="146" width="2" height="2" fill="#D9A066" />
<rect x="166" y="146" width="2" height="2" fill="#D9A066" />
<rect x="168" y="146" width="2" height="2" fill="#D9A066" />
<rect x="170" y="146" width="2" height="2" fill="#D9A066" />
<rect x="172" y="146" width="2" height="2" fill="#D9A066" />
<rect x="174" y="146" width="2" height="2" fill="#D9A066" />
<rect x="176" y="146" width="2" height="2" fill="#000000" />
<rect x="178" y="146" width="2" height="2" fill="#000000" />
<rect x="180" y="146" width="2" height="2" fill="#000000" />
<rect x="182" y="146" width="2" height="2" fill="#000000" />
<rect x="184" y="146" width="2" height="2" fill="#000000" />
<rect x="152" y="148" width="2" height="2" fill="#000000" />
<rect x="154" y="148" width="2" height="2" fill="#000000" />
<rect x="156" y="148" width="2" height="2" fill="#D9A066" />
<rect x="158" y="148" width="2" height="2" fill="#D9A066" />
<rect x="160" y="148" width="2" height="2" fill="#D9A066" />
<rect x="162" y="148" width="2" height="2" fill="#D9A066" />
<rect x="164" y="148" width="2" height="2" fill="#D9A066" />
<rect x="166" y="148" width="2" height="2" fill="#D9A066" />
<rect x="168" y="148" width="2" height="2" fill="#D9A066" />
<rect x="170" y="148" width="2" height="2" fill="#D9A066" />
<rect x="172" y="148" width="2" height="2" fill="#D9A066" />
<rect x="174" y="148" width="2" height="2" fill="#D9A066" />
<rect x="176" y="148" width="2" height="2" fill="#D9A066" />
<rect x="178" y="148" width="2" height="2" fill="#D9A066" />
<rect x="180" y="148" width="2" height="2" fill="#D9A066" />
<rect x="182" y="148" width="2" height="2" fill="#D9A066" />
<rect x="184" y="148" width="2" height="2" fill="#000000" />
<rect x="154" y="150" width="2" height="2" fill="#000000" />
<rect x="156" y="150" width="2" height="2" fill="#000000" />
<rect x="158" y="150" width="2" height="2" fill="#D9A066" />
<rect x="160" y="150" width="2" height="2" fill="#D9A066" />
<rect x="162" y="150" width="2" height="2" fill="#D9A066" />
<rect x="164" y="150" width="2" height="2" fill="#D9A066" />
<rect x="166" y="150" width="2" height="2" fill="#D9A066" />
<rect x="168" y="150" width="2" height="2" fill="#D9A066" />
<rect x="170" y="150" width="2" height="2" fill="#D9A066" />
<rect x="172" y="150" width="2" height="2" fill="#D9A066" />
<rect x="174" y="150" width="2" height="2" fill="#D9A066" />
<rect x="176" y="150" width="2" height="2" fill="#000000" />
<rect x="178" y="150" width="2" height="2" fill="#000000" />
<rect x="180" y="150" width="2" height="2" fill="#000000" />
<rect x="182" y="150" width="2" height="2" fill="#000000" />
<rect x="154" y="152" width="2" height="2" fill="#000000" />
<rect x="156" y="152" width="2" height="2" fill="#000000" />
<rect x="158" y="152" width="2" height="2" fill="#000000" />
<rect x="160" y="152" width="2" height="2" fill="#000000" />
<rect x="162" y="152" width="2" height="2" fill="#000000" />
<rect x="164" y="152" width="2" height="2" fill="#000000" />
<rect x="166" y="152" width="2" height="2" fill="#000000" />
<rect x="168" y="152" width="2" height="2" fill="#000000" />
<rect x="170" y="152" width="2" height="2" fill="#000000" />
<rect x="172" y="152" width="2" height="2" fill="#000000" />
<rect x="174" y="152" width="2" height="2" fill="#000000" />
<rect x="176" y="152" width="2" height="2" fill="#000000" />
</svg>